<?xml version="1.0" encoding="UTF-8"?>
<svg version="1.1" xmlns="http://www.w3.org/2000/svg" width="625" height="352">
<path d="M0 0 C20.13 0 40.26 0 61 0 C61.33 40.92 61.66 81.84 62 124 C82.79 124 103.58 124 125 124 C125.33 124.66 125.66 125.32 126 126 C106.16941544 153.84339413 106.16941544 153.84339413 97 166 C88.74834153 176.95078633 80.58102777 187.96682627 73.0625 199.4375 C68.18100721 206.88035019 62.90250783 214.00673995 57.59375 221.1484375 C54.07888689 225.87866723 50.62701804 230.65232636 47.1875 235.4375 C42.20891286 242.35680301 37.15287231 249.20939308 32 256 C30.0625 255.625 30.0625 255.625 28 255 C27.67 254.34 27.34 253.68 27 253 C25.515 252.01 25.515 252.01 24 251 C23 249.1875 23 249.1875 22 247 C20.16909065 243.65660032 19.22897289 242.1526486 16 240 C15.28700585 238.69085464 14.62250612 237.35451407 14 236 C13.21366401 234.78947175 12.40108129 233.5956871 11.56640625 232.41796875 C10.84855957 231.40222778 10.84855957 231.40222778 10.11621094 230.3659668 C9.60348633 229.64707275 9.09076172 228.92817871 8.5625 228.1875 C8.03043945 227.43702393 7.49837891 226.68654785 6.95019531 225.91333008 C2.9811952 220.33170337 -1.0689338 214.81291507 -5.14111328 209.30639648 C-7.80576535 205.68487026 -10.35261449 202.01555722 -12.8125 198.25 C-17.37708058 191.30065896 -22.3570653 184.66861459 -27.30859375 177.9921875 C-30.99303836 173.02156167 -34.62930696 168.017195 -38.25 163 C-38.79873779 162.24058105 -39.34747559 161.48116211 -39.9128418 160.69873047 C-41.98617421 157.82321 -44.03318947 154.95021579 -46 152 C-47.485 151.01 -47.485 151.01 -49 150 C-48.67 149.34 -48.34 148.68 -48 148 C-49.32 147.67 -50.64 147.34 -52 147 C-52.103125 146.443125 -52.20625 145.88625 -52.3125 145.3125 C-53.58712201 141.02513507 -55.27688802 138.48207465 -59 136 C-59 135.34 -59 134.68 -59 134 C-59.61875 133.835 -60.2375 133.67 -60.875 133.5 C-63 132 -63 132 -65 124 C-43.88 124 -22.76 124 -1 124 C-0.67 83.08 -0.34 42.16 0 0 Z " fill="#FF3307" transform="translate(282,48)"/>
<path d="M0 0 C20.13 0 40.26 0 61 0 C61.33 41.25 61.66 82.5 62 125 C61.01 125 60.02 125 59 125 C59 84.08 59 43.16 59 1 C40.19 1 21.38 1 2 1 C2.01160156 9.93964844 2.02320313 18.87929687 2.03515625 28.08984375 C2.04091162 34.45382247 2.04603855 40.81779924 2.05025387 47.18177891 C2.05580574 55.43654006 2.0628656 63.69129116 2.07543945 71.94604492 C2.08538637 78.47930504 2.09185344 85.01255759 2.09408849 91.54582506 C2.09539559 95.00721807 2.09848136 98.46858942 2.10573006 101.92997551 C2.11374407 105.78787527 2.11399113 109.64575357 2.11352539 113.50366211 C2.11712067 114.65955841 2.12071594 115.81545471 2.12442017 117.00637817 C2.1230455 118.05110794 2.12167084 119.09583771 2.12025452 120.17222595 C2.12117631 121.0857228 2.1220981 121.99921965 2.12304783 122.94039822 C2 125 2 125 1 126 C-0.93306498 126.09396057 -2.86958838 126.11743517 -4.80493164 126.11352539 C-6.66674828 126.11341209 -6.66674828 126.11341209 -8.56617737 126.11329651 C-9.9308374 126.10818911 -11.29549702 126.1029731 -12.66015625 126.09765625 C-14.04878183 126.095792 -15.43740807 126.09436813 -16.82603455 126.09336853 C-20.48721115 126.08954387 -24.1483483 126.07971403 -27.80950928 126.06866455 C-31.54292263 126.05844932 -35.27634234 126.05387067 -39.00976562 126.04882812 C-46.33986177 126.03809171 -53.66992536 126.02101591 -61 126 C-61 127.32 -61 128.64 -61 130 C-61.99 129.67 -62.98 129.34 -64 129 C-64.495 126.525 -64.495 126.525 -65 124 C-43.88 124 -22.76 124 -1 124 C-0.67 83.08 -0.34 42.16 0 0 Z " fill="#FF917A" transform="translate(282,48)"/>
<path d="M0 0 C0.33 0 0.66 0 1 0 C1 41.58 1 83.16 1 126 C-19.46 126 -39.92 126 -61 126 C-61 127.32 -61 128.64 -61 130 C-61.99 129.67 -62.98 129.34 -64 129 C-64.495 126.525 -64.495 126.525 -65 124 C-43.88 124 -22.76 124 -1 124 C-0.67 83.08 -0.34 42.16 0 0 Z " fill="#FFC9BD" transform="translate(282,48)"/>
<path d="M0 0 C1.86159004 0.00022659 1.86159004 0.00022659 3.76078796 0.00045776 C5.11502238 0.01067098 6.46925516 0.02110297 7.82348633 0.03173828 C9.20925187 0.03546911 10.59502006 0.03831575 11.98078918 0.04031372 C15.62555238 0.0479447 19.27015582 0.06758848 22.91485596 0.08972168 C26.63502847 0.1101917 30.35522684 0.1193179 34.07543945 0.12939453 C41.37303827 0.15083498 48.67050553 0.18496434 55.96801758 0.22705078 C56.46301758 1.21705078 56.46301758 1.21705078 56.96801758 2.22705078 C55.97801758 3.21705078 54.98801758 4.20705078 53.96801758 5.22705078 C53.96801758 4.56705078 53.96801758 3.90705078 53.96801758 3.22705078 C33.17801758 2.89705078 12.38801758 2.56705078 -9.03198242 2.22705078 C-5.52555536 -0.11056726 -4.14342292 -0.01680902 0 0 Z " fill="#FF8D75" transform="translate(351.031982421875,171.77294921875)"/>
<path d="M0 0 C0.99 0 1.98 0 3 0 C3.33 1.98 3.66 3.96 4 6 C3.01 5.67 2.02 5.34 1 5 C0.67 3.35 0.34 1.7 0 0 Z " fill="#FFB4A5" transform="translate(217,172)"/>
<path d="" fill="#FFFEFE" transform="translate(0,0)"/>
<path d="" fill="#FFFFFF" transform="translate(0,0)"/>
</svg>
